# test5_column; source Poly Pizza; see ASSET-CREDITS.md
v -0.397259137 1.55689799 -0.397255933
v 0.397252291 1.32972439 -0.397255902
v -0.397259137 1.32972439 -0.397255902
v 0.397252291 1.55689799 -0.397255933
v 0.397252291 1.55689809 0.397255515
v -0.397259137 1.3297245 0.397255545
v 0.397252291 1.3297245 0.397255545
v -0.397259137 1.55689809 0.397255515
v -0.397259137 1.55689809 0.397255515
v -0.397259137 1.32972439 -0.397255902
v -0.397259137 1.3297245 0.397255545
v -0.397259137 1.55689799 -0.397255933
v 0.397252291 1.3297245 0.397255545
v -0.397259137 1.32972439 -0.397255902
v 0.397252291 1.32972439 -0.397255902
v -0.397259137 1.3297245 0.397255545
v 0.397252291 1.55689809 0.397255515
v -0.566846784 1.55689812 0.566843156
v -0.397259137 1.55689809 0.397255515
v 0.566839986 1.55689812 0.566843156
v -0.566846784 1.55689797 -0.566843575
v -0.397259137 1.55689799 -0.397255933
v 0.397252291 1.55689799 -0.397255933
v 0.397252291 1.3297245 0.397255545
v 0.397252291 1.32972439 -0.397255902
v 0.397252291 1.55689809 0.397255515
v 0.566839986 1.55689812 0.566843156
v -0.579467742 1.59714913 0.579464108
v -0.566846784 1.55689812 0.566843156
v 0.566839986 1.55689797 -0.566843575
v 0.579460943 1.59714913 0.579464108
v 0.566839986 1.55689812 0.566843156
v -0.566846784 1.55689797 -0.566843575
v 0.579460943 1.59714898 -0.579464537
v 0.566839986 1.55689797 -0.566843575
v -0.566846784 1.55689812 0.566843156
v -0.579467742 1.59714898 -0.579464537
v -0.566846784 1.55689797 -0.566843575
v -0.579467742 1.59714913 0.579464108
v -0.634676125 1.70212895 -0.634672933
v -0.579467742 1.59714898 -0.579464537
v 0.634669326 1.70212895 -0.634672933
v 0.579460943 1.59714898 -0.579464537
v 0.634669326 1.70212912 0.634672475
v 0.579460943 1.59714913 0.579464108
v -0.634676125 1.70212912 0.634672475
v 0.695607904 1.77275169 -0.695611518
v -0.695614703 1.77275188 0.695611042
v 0.695607904 1.77275188 0.695611042
v -0.695614703 1.77275169 -0.695611518
v 0.566839986 1.55689797 -0.566843575
v 0.397252291 1.55689799 -0.397255933
v 0.634669326 1.70212912 0.634672475
v -0.695614703 1.77275188 0.695611042
v 0.695607904 1.77275188 0.695611042
v 0.634669326 1.70212895 -0.634672933
v 0.695607904 1.77275188 0.695611042
v 0.695607904 1.77275169 -0.695611518
v -0.634676125 1.70212895 -0.634672933
v 0.695607904 1.77275169 -0.695611518
v -0.695614703 1.77275169 -0.695611518
v -0.634676125 1.70212912 0.634672475
v -0.695614703 1.77275169 -0.695611518
v -0.695614703 1.77275188 0.695611042
v 0.221223617 0.661604928 -0.304493107
v 0.372659951 0.727648247 -0.1210858
v 0.357949408 0.661604953 -0.116306046
v 0.221223617 0.661605009 0.304493022
v -3.5320852e-06 0.727648316 0.391841569
v -3.53666287e-06 0.661605019 0.37637401
v -0.221230695 0.661605009 0.304492929
v -0.372667098 0.727648279 0.12108564
v -0.357956509 0.661604984 0.116305915
v -0.372667098 0.727648247 -0.121085835
v -0.357956509 0.661604953 -0.116306104
v -0.221230509 0.661604928 -0.30449327
v -3.49782958e-06 0.72764821 -0.391841764
v -3.50375942e-06 0.661604918 -0.376374188
v -0.230322103 0.727648221 -0.317006808
v -0.424380274 0.791624515 -0.137888486
v -3.49033265e-06 0.791624474 -0.446216248
v -0.262282579 0.791624485 -0.360996696
v -0.230322289 0.727648306 0.31700645
v 0.230315258 0.727648306 0.317006566
v -3.52934215e-06 0.791624594 0.446216035
v -0.262282812 0.791624582 0.360996297
v 0.262275781 0.791624582 0.360996414
v 0.230315258 0.727648221 -0.317006645
v 0.262275781 0.791624485 -0.36099651
v 0.372659951 0.727648279 0.12108564
v 0.357949408 0.661604984 0.116305915
v 0.424373103 0.791624515 -0.137888439
v 0.424373103 0.791624552 0.137888273
v -0.424380274 0.791624552 0.137888273
v 0.424373103 0.791624552 0.137888273
v 0.22122364 0.807226835 0.304493003
v 0.262275781 0.791624582 0.360996414
v 0.357949408 0.80722681 0.116305895
v 0.424373103 0.791624515 -0.137888439
v 0.357949408 0.807226779 -0.116306066
v 0.262275781 0.791624485 -0.36099651
v 0.22122364 0.807226753 -0.304493127
v -3.49033265e-06 0.791624474 -0.446216248
v -3.49215661e-06 0.807226744 -0.376374207
v -3.52506007e-06 0.807226845 0.37637399
v -3.52934215e-06 0.791624594 0.446216035
v -0.221230695 0.807226835 0.30449291
v -0.424380274 0.791624552 0.137888273
v -0.262282812 0.791624582 0.360996297
v -0.357956509 0.80722681 0.116305895
v -0.424380274 0.791624515 -0.137888486
v -0.357956509 0.807226779 -0.116306124
v -0.262282579 0.791624485 -0.360996696
v -0.221230485 0.807226753 -0.30449329
v -0.357956509 0.80722681 0.116305895
v -0.357956509 1.60164624 0.116305789
v -0.357956509 1.60164621 -0.116306231
v -0.221230695 0.807226835 0.30449291
v -0.221230485 0.807226753 -0.30449329
v -0.221230485 1.60164619 -0.304493396
v -3.49215661e-06 1.60164618 -0.376374314
v -0.357956509 0.807226779 -0.116306124
v -0.221230695 1.60164627 0.304492803
v -3.52506007e-06 0.807226845 0.37637399
v -3.52506007e-06 1.60164628 0.376373883
v 0.22122364 0.807226835 0.304493003
v 0.22122364 1.60164627 0.304492896
v 0.357949408 0.80722681 0.116305895
v 0.22122364 0.807226753 -0.304493127
v 0.22122364 1.60164619 -0.304493233
v 0.357949408 1.60164621 -0.116306172
v -3.49215661e-06 0.807226744 -0.376374207
v -0.221230695 0.661605009 0.304492929
v -0.482931081 0.582512981 0.156912636
v -0.298469258 0.582513016 0.410802663
v -3.55241596e-06 0.582513029 0.507780069
v -3.53666287e-06 0.661605019 0.37637401
v 0.357949408 0.661604984 0.116305915
v 0.48292405 0.582512939 -0.156912735
v 0.357949408 0.661604953 -0.116306046
v 0.221223617 0.661605009 0.304493022
v 0.48292405 0.582512981 0.156912636
v -0.221230509 0.661604928 -0.30449327
v -3.50802409e-06 0.582512892 -0.507780225
v -0.298469001 0.582512905 -0.410803053
v -0.482931081 0.582512939 -0.156912793
v -0.357956509 0.661604953 -0.116306104
v 0.357949408 1.60164624 0.116305789
v 0.357949408 0.807226779 -0.116306066
v 0.221223617 0.661604928 -0.304493107
v 0.298462156 0.582512905 -0.41080282
v -3.50623779e-06 0.511155139 -0.553277092
v 0.526194135 0.51115519 -0.170972017
v -3.50375942e-06 0.661604918 -0.376374188
v 0.298462156 0.582513016 0.410802849
v 0.526194135 0.511155236 0.170971961
v -3.55460656e-06 0.511155288 0.553276954
v -0.526201166 0.51115519 -0.170972098
v -0.311855972 0.360066444 -0.429228587
v -3.50866252e-06 0.411651195 -0.553277078
v -3.50770186e-06 0.36006643 -0.530555455
v 0.31184915 0.360066444 -0.429228401
v 0.526194135 0.411651246 -0.170972003
v 0.504584471 0.360066479 -0.163950651
v 0.31184915 0.360066559 0.429228397
v -3.55703165e-06 0.411651344 0.553276968
v -3.55408432e-06 0.360066572 0.530555359
v -0.32521137 0.511155153 -0.447610772
v -0.32521137 0.411651209 -0.447610759
v -0.526201166 0.411651246 -0.170972085
v -0.504591642 0.360066479 -0.163950721
v -0.526201166 0.511155236 0.170971961
v -0.526201166 0.411651292 0.170971974
v -0.325211673 0.511155274 0.447610449
v -0.325211673 0.41165133 0.447610462
v -0.311856228 0.360066559 0.429228258
v 0.325204548 0.41165133 0.447610602
v -0.357956509 0.661604984 0.116305915
v 0.526194135 0.411651292 0.170971974
v 0.504584471 0.360066523 0.163950624
v 0.325204548 0.511155274 0.447610589
v 0.325204548 0.411651209 -0.447610573
v 0.325204548 0.511155153 -0.447610586
v -0.504591642 0.360066523 0.163950624
v -3.50770186e-06 0.36006643 -0.530555455
v 0.235730503 0.315577203 -0.32446008
v -3.5089009e-06 0.315577193 -0.401054677
v -0.235737371 0.315577203 -0.324460243
v -0.311856228 0.360066559 0.429228258
v -0.504591642 0.360066523 0.163950624
v -0.235737581 0.31557729 0.324459972
v -0.381429098 0.315577263 0.12393269
v -3.55408432e-06 0.360066572 0.530555359
v -0.311855972 0.360066444 -0.429228587
v -0.504591642 0.360066479 -0.163950721
v 0.31184915 0.360066444 -0.429228401
v 0.504584471 0.360066479 -0.163950651
v 0.381422066 0.31557723 -0.123932716
v 0.381422066 0.315577263 0.12393269
v -3.54396228e-06 0.315577301 0.401054593
v -0.381429098 0.31557723 -0.123932775
v 0.235730503 0.31557729 0.324460089
v 0.504247891 0.273554505 0.163841252
v 0.381422066 0.315577263 0.12393269
v -3.54396228e-06 0.315577301 0.401054593
v -3.55622838e-06 0.273554555 0.530201375
v -0.381429098 0.315577263 0.12393269
v -0.381429098 0.31557723 -0.123932775
v -0.504254829 0.273554461 -0.163841325
v -0.235737371 0.315577203 -0.324460243
v -3.50987648e-06 0.273554412 -0.530201448
v -0.311647891 0.273554426 -0.428942147
v 0.504247891 0.273554461 -0.163841232
v 0.381422066 0.31557723 -0.123932716
v 0.31184915 0.360066559 0.429228397
v 0.235730503 0.31557729 0.324460089
v 0.504584471 0.360066523 0.163950624
v 0.311640999 0.273554541 0.428941981
v -3.56391325e-06 0.192669938 0.622298614
v 0.591837615 0.19266988 0.192300885
v -0.504254829 0.273554505 0.163841252
v -0.591844553 0.192669828 -0.192300936
v -0.235737581 0.31557729 0.324459972
v -3.5089009e-06 0.315577193 -0.401054677
v 0.591837615 0.192669828 -0.192300832
v -3.50950984e-06 0.19266977 -0.622298573
v -0.365781249 0.192669786 -0.503450408
v -0.311648194 0.273554541 0.428941841
v -0.591844553 0.19266988 0.192300885
v -0.365781621 0.192669922 0.50345017
v -0.642710505 0.0842911094 0.208828254
v -0.397218531 0.0842911548 0.546719337
v -0.642710505 0.0842910533 -0.208828276
v -3.50916842e-06 0.0842909905 -0.675782317
v 0.365774403 0.192669786 -0.503450268
v 0.397211313 0.0842910079 -0.546719452
v -0.397218112 0.0842910079 -0.546719639
v 0.311640999 0.273554426 -0.428942008
v 0.642703567 0.0842911094 0.208828254
v 0.365774403 0.192669922 0.503450263
v 0.397211313 0.0842911548 0.546719523
v -3.56824721e-06 0.0842911721 0.675782294
v 0.642703567 0.0842910533 -0.208828183
v 0.235730503 0.315577203 -0.32446008
v -0.700021023 0.0842911119 0.227449582
v -0.397218531 0.0842911548 0.546719337
v -0.642710505 0.0842911094 0.208828254
v -0.642710505 0.0842910533 -0.208828276
v -0.700021023 0.0842910508 -0.227449605
v -0.397218112 0.0842910079 -0.546719639
v -0.432637939 0.0842910013 -0.595470881
v -3.51052805e-06 0.0842909824 -0.736042052
v 0.700014085 0.0842910508 -0.227449489
v 0.432631141 0.0842910013 -0.595470695
v 0.397211313 0.0842910079 -0.546719452
v 0.642703567 0.0842910533 -0.208828183
v 0.700014085 0.0842911119 0.227449582
v -3.50916842e-06 0.0842909905 -0.675782317
v 0.642703567 0.0842911094 0.208828254
v 0.397211313 0.0842911548 0.546719523
v 0.432631141 0.0842911613 0.595470719
v -3.56824721e-06 0.0842911721 0.675782294
v -3.57487444e-06 0.0842911802 0.736042169
v -3.51052023e-06 1.14477632e-07 -0.735788534
v -0.69977995 1.82788002e-07 -0.227371223
v -0.432488928 1.33358107e-07 -0.595265793
v 0.699773012 1.82788015e-07 -0.22737113
v -0.69977995 2.43886679e-07 0.227371223
v 0.432482129 1.33358144e-07 -0.595265513
v 0.699773012 2.43886679e-07 0.227371223
v -3.57484495e-06 3.12197056e-07 0.735788581
v -0.432489347 2.93316524e-07 0.59526542
v 0.432482129 2.93316555e-07 0.595265653
v -0.432488928 1.33358107e-07 -0.595265793
v -0.700021023 0.0842910508 -0.227449605
v -0.432637939 0.0842910013 -0.595470881
v -3.51052805e-06 0.0842909824 -0.736042052
v -3.51052023e-06 1.14477632e-07 -0.735788534
v -0.432638358 0.0842911613 0.595470579
v -0.69977995 1.82788002e-07 -0.227371223
v -0.700021023 0.0842911119 0.227449582
v -0.69977995 2.43886679e-07 0.227371223
v -0.432489347 2.93316524e-07 0.59526542
v -0.432638358 0.0842911613 0.595470579
v -3.57487444e-06 0.0842911802 0.736042169
v -3.57484495e-06 3.12197056e-07 0.735788581
v 0.432482129 2.93316555e-07 0.595265653
v 0.432631141 0.0842911613 0.595470719
v 0.700014085 0.0842911119 0.227449582
v 0.699773012 1.82788015e-07 -0.22737113
v 0.700014085 0.0842910508 -0.227449489
v 0.699773012 2.43886679e-07 0.227371223
v 0.432482129 1.33358144e-07 -0.595265513
v 0.432631141 0.0842910013 -0.595470695
vt 0.5 0.5
vt 0.5 0.5
vt 0.5 0.5
vt 0.5 0.5
vt 0.5 0.5
vt 0.5 0.5
vt 0.5 0.5
vt 0.5 0.5
vt 0.5 0.5
vt 0.5 0.5
vt 0.5 0.5
vt 0.5 0.5
vt 0.5 0.5
vt 0.5 0.5
vt 0.5 0.5
vt 0.5 0.5
vt 0.5 0.5
vt 0.5 0.5
vt 0.5 0.5
vt 0.5 0.5
vt 0.5 0.5
vt 0.5 0.5
vt 0.5 0.5
vt 0.5 0.5
vt 0.5 0.5
vt 0.5 0.5
vt 0.5 0.5
vt 0.5 0.5
vt 0.5 0.5
vt 0.5 0.5
vt 0.5 0.5
vt 0.5 0.5
vt 0.5 0.5
vt 0.5 0.5
vt 0.5 0.5
vt 0.5 0.5
vt 0.5 0.5
vt 0.5 0.5
vt 0.5 0.5
vt 0.5 0.5
vt 0.5 0.5
vt 0.5 0.5
vt 0.5 0.5
vt 0.5 0.5
vt 0.5 0.5
vt 0.5 0.5
vt 0.5 0.5
vt 0.5 0.5
vt 0.5 0.5
vt 0.5 0.5
vt 0.5 0.5
vt 0.5 0.5
vt 0.5 0.5
vt 0.5 0.5
vt 0.5 0.5
vt 0.5 0.5
vt 0.5 0.5
vt 0.5 0.5
vt 0.5 0.5
vt 0.5 0.5
vt 0.5 0.5
vt 0.5 0.5
vt 0.5 0.5
vt 0.5 0.5
vt 0.5 0.5
vt 0.5 0.5
vt 0.5 0.5
vt 0.5 0.5
vt 0.5 0.5
vt 0.5 0.5
vt 0.5 0.5
vt 0.5 0.5
vt 0.5 0.5
vt 0.5 0.5
vt 0.5 0.5
vt 0.5 0.5
vt 0.5 0.5
vt 0.5 0.5
vt 0.5 0.5
vt 0.5 0.5
vt 0.5 0.5
vt 0.5 0.5
vt 0.5 0.5
vt 0.5 0.5
vt 0.5 0.5
vt 0.5 0.5
vt 0.5 0.5
vt 0.5 0.5
vt 0.5 0.5
vt 0.5 0.5
vt 0.5 0.5
vt 0.5 0.5
vt 0.5 0.5
vt 0.5 0.5
vt 0.5 0.5
vt 0.5 0.5
vt 0.5 0.5
vt 0.5 0.5
vt 0.5 0.5
vt 0.5 0.5
vt 0.5 0.5
vt 0.5 0.5
vt 0.5 0.5
vt 0.5 0.5
vt 0.5 0.5
vt 0.5 0.5
vt 0.5 0.5
vt 0.5 0.5
vt 0.5 0.5
vt 0.5 0.5
vt 0.5 0.5
vt 0.5 0.5
vt 0.5 0.5
vt 0.5 0.5
vt 0.5 0.5
vt 0.5 0.5
vt 0.5 0.5
vt 0.5 0.5
vt 0.5 0.5
vt 0.5 0.5
vt 0.5 0.5
vt 0.5 0.5
vt 0.5 0.5
vt 0.5 0.5
vt 0.5 0.5
vt 0.5 0.5
vt 0.5 0.5
vt 0.5 0.5
vt 0.5 0.5
vt 0.5 0.5
vt 0.5 0.5
vt 0.5 0.5
vt 0.5 0.5
vt 0.5 0.5
vt 0.5 0.5
vt 0.5 0.5
vt 0.5 0.5
vt 0.5 0.5
vt 0.5 0.5
vt 0.5 0.5
vt 0.5 0.5
vt 0.5 0.5
vt 0.5 0.5
vt 0.5 0.5
vt 0.5 0.5
vt 0.5 0.5
vt 0.5 0.5
vt 0.5 0.5
vt 0.5 0.5
vt 0.5 0.5
vt 0.5 0.5
vt 0.5 0.5
vt 0.5 0.5
vt 0.5 0.5
vt 0.5 0.5
vt 0.5 0.5
vt 0.5 0.5
vt 0.5 0.5
vt 0.5 0.5
vt 0.5 0.5
vt 0.5 0.5
vt 0.5 0.5
vt 0.5 0.5
vt 0.5 0.5
vt 0.5 0.5
vt 0.5 0.5
vt 0.5 0.5
vt 0.5 0.5
vt 0.5 0.5
vt 0.5 0.5
vt 0.5 0.5
vt 0.5 0.5
vt 0.5 0.5
vt 0.5 0.5
vt 0.5 0.5
vt 0.5 0.5
vt 0.5 0.5
vt 0.5 0.5
vt 0.5 0.5
vt 0.5 0.5
vt 0.5 0.5
vt 0.5 0.5
vt 0.5 0.5
vt 0.5 0.5
vt 0.5 0.5
vt 0.5 0.5
vt 0.5 0.5
vt 0.5 0.5
vt 0.5 0.5
vt 0.5 0.5
vt 0.5 0.5
vt 0.5 0.5
vt 0.5 0.5
vt 0.5 0.5
vt 0.5 0.5
vt 0.5 0.5
vt 0.5 0.5
vt 0.5 0.5
vt 0.5 0.5
vt 0.5 0.5
vt 0.5 0.5
vt 0.5 0.5
vt 0.5 0.5
vt 0.5 0.5
vt 0.5 0.5
vt 0.5 0.5
vt 0.5 0.5
vt 0.5 0.5
vt 0.5 0.5
vt 0.5 0.5
vt 0.5 0.5
vt 0.5 0.5
vt 0.5 0.5
vt 0.5 0.5
vt 0.5 0.5
vt 0.5 0.5
vt 0.5 0.5
vt 0.5 0.5
vt 0.5 0.5
vt 0.5 0.5
vt 0.5 0.5
vt 0.5 0.5
vt 0.5 0.5
vt 0.5 0.5
vt 0.5 0.5
vt 0.5 0.5
vt 0.5 0.5
vt 0.5 0.5
vt 0.5 0.5
vt 0.5 0.5
vt 0.5 0.5
vt 0.5 0.5
vt 0.5 0.5
vt 0.5 0.5
vt 0.5 0.5
vt 0.5 0.5
vt 0.5 0.5
vt 0.5 0.5
vt 0.5 0.5
vt 0.5 0.5
vt 0.5 0.5
vt 0.5 0.5
vt 0.5 0.5
vt 0.5 0.5
vt 0.5 0.5
vt 0.5 0.5
vt 0.5 0.5
vt 0.5 0.5
vt 0.5 0.5
vt 0.5 0.5
vt 0.5 0.5
vt 0.5 0.5
vt 0.5 0.5
vt 0.5 0.5
vt 0.5 0.5
vt 0.5 0.5
vt 0.5 0.5
vt 0.5 0.5
vt 0.5 0.5
vt 0.5 0.5
vt 0.5 0.5
vt 0.5 0.5
vt 0.5 0.5
vt 0.5 0.5
vt 0.5 0.5
vt 0.5 0.5
vt 0.5 0.5
vt 0.5 0.5
vt 0.5 0.5
vt 0.5 0.5
vt 0.5 0.5
vt 0.5 0.5
vt 0.5 0.5
vt 0.5 0.5
vt 0.5 0.5
vt 0.5 0.5
vt 0.5 0.5
vt 0.5 0.5
vt 0.5 0.5
vt 0.5 0.5
vt 0.5 0.5
vt 0.5 0.5
vt 0.5 0.5
vt 0.5 0.5
vt 0.5 0.5
vt 0.5 0.5
vt 0.5 0.5
vt 0.5 0.5
vt 0.5 0.5
vt 0.5 0.5
vt 0.5 0.5
vt 0.5 0.5
vt 0.5 0.5
vt 0.5 0.5
vn 0 -1.3435886e-07 -1
vn 0 -1.3435886e-07 -1
vn 0 -1.3435886e-07 -1
vn 0 -1.3435886e-07 -1
vn 0 1.3435886e-07 1
vn 0 1.3435886e-07 1
vn 0 1.3435886e-07 1
vn 0 1.3435886e-07 1
vn -1 0 0
vn -1 0 0
vn -1 0 0
vn -1 0 0
vn 0 -1 1.3435886e-07
vn 0 -1 1.3435886e-07
vn 0 -1 1.3435886e-07
vn 0 -1 1.3435886e-07
vn 0 -1 1.3435886e-07
vn 0 -1 1.3435886e-07
vn 0 -1 1.3435886e-07
vn 0 -1 1.3435886e-07
vn 0 -1 1.3435886e-07
vn 0 -1 1.3435886e-07
vn 1 0 0
vn 1 0 0
vn 1 0 0
vn 1 0 0
vn 0 -0.299193041 0.954192603
vn 0 -0.402249731 0.915529985
vn 0 -0.299193041 0.954192603
vn 0.954192583 -0.299193105 4.01992447e-08
vn 0.915529925 -0.402249867 5.40458338e-08
vn 0.954192583 -0.299193105 4.01992447e-08
vn 0 -0.299193297 -0.954192523
vn 0 -0.402249977 -0.915529877
vn 0 -0.299193297 -0.954192523
vn -0.954192583 -0.299193105 4.01992447e-08
vn -0.915529925 -0.402249867 5.40458338e-08
vn -0.954192583 -0.299193105 4.01992447e-08
vn -0.915529925 -0.402249867 5.40458338e-08
vn -0.806054792 -0.591840918 7.95190713e-08
vn 0 -0.402249977 -0.915529877
vn 0 -0.591841213 -0.806054576
vn 0.915529925 -0.402249867 5.40458338e-08
vn 0.806054792 -0.591840918 7.95190713e-08
vn 0 -0.402249731 0.915529985
vn 0 -0.591840996 0.806054735
vn 0 1 -1.3435886e-07
vn 0 1 -1.3435886e-07
vn 0 1 -1.3435886e-07
vn 0 1 -1.3435886e-07
vn 0 -1 1.3435886e-07
vn 0 -1 1.3435886e-07
vn 0 -0.591840996 0.806054735
vn 0 -0.653288941 0.757108684
vn 0 -0.653288941 0.757108684
vn 0.806054792 -0.591840918 7.95190713e-08
vn 0.757108852 -0.653288746 8.77751315e-08
vn 0.757108852 -0.653288746 8.77751315e-08
vn 0 -0.591841213 -0.806054576
vn 0 -0.653289145 -0.757108508
vn 0 -0.653289145 -0.757108508
vn -0.806054792 -0.591840918 7.95190713e-08
vn -0.757108852 -0.653288746 8.77751315e-08
vn -0.757108852 -0.653288746 8.77751315e-08
vn 0.572299261 -0.228032963 -0.787702052
vn 0.839374924 -0.470179234 -0.272729213
vn 0.925999452 -0.22803317 -0.300875202
vn 0.572299328 -0.228032754 0.787702064
vn -2.33493527e-07 -0.470178983 0.882571087
vn -2.47578363e-07 -0.228032502 0.973653521
vn -0.572299273 -0.228032666 0.78770213
vn -0.839374924 -0.470179161 0.272729339
vn -0.925999361 -0.22803329 0.300875392
vn -0.839374837 -0.470179309 -0.272729353
vn -0.925999326 -0.228033452 -0.300875379
vn -0.572299034 -0.228033071 -0.787702186
vn 3.21053592e-07 -0.470179126 -0.882571011
vn 2.47578387e-07 -0.228032848 -0.973653439
vn -0.518762114 -0.470179193 -0.714014983
vn -0.724677181 -0.64761148 -0.235462001
vn 3.36323238e-07 -0.647611636 -0.761970583
vn -0.447874924 -0.64761153 -0.616447369
vn -0.518762486 -0.470178924 0.71401489
vn 0.518762413 -0.470179121 0.714014812
vn -1.90583155e-07 -0.647611687 0.761970539
vn -0.447875409 -0.647611511 0.616447036
vn 0.447875249 -0.647611598 0.616447062
vn 0.518762479 -0.470179229 -0.714014694
vn 0.447875298 -0.647611629 -0.616446993
vn 0.839375079 -0.470179028 0.272729093
vn 0.92599954 -0.228033037 0.300875034
vn 0.72467714 -0.647611623 -0.235461734
vn 0.724677304 -0.64761142 0.235461789
vn -0.724677301 -0.647611358 0.235461967
vn 0.207349259 0.97594433 0.0673717203
vn 0.128148944 0.975944334 0.176381705
vn 0.128148936 0.975944333 0.176381715
vn 0.207349274 0.97594433 0.0673716756
vn 0.207349273 0.975944308 -0.0673719971
vn 0.207349287 0.975944307 -0.0673719747
vn 0.128148994 0.97594427 -0.17638202
vn 0.128148979 0.975944272 -0.17638202
vn 6.49785951e-08 0.975944248 -0.218020242
vn 7.95807891e-08 0.975944251 -0.218020227
vn -3.97903953e-09 0.975944328 0.21801988
vn 5.90714531e-09 0.975944328 0.21801988
vn -0.128148993 0.975944312 0.176381786
vn -0.207349215 0.975944337 0.067371758
vn -0.128149008 0.975944313 0.176381771
vn -0.207349244 0.975944331 0.0673717576
vn -0.207349555 0.975944246 -0.0673720342
vn -0.207349555 0.975944243 -0.0673720713
vn -0.128149263 0.975944213 -0.176382139
vn -0.128149277 0.975944211 -0.176382139
vn -0.951056563 4.15191519e-08 0.30901685
vn -0.951056563 4.15191519e-08 0.30901685
vn -0.951056496 -4.15191796e-08 -0.309017057
vn -0.58778543 1.08698584e-07 0.809016865
vn -0.587785121 -1.08698614e-07 -0.809017089
vn -0.587785121 -1.08698614e-07 -0.809017089
vn 1.99491275e-07 -1.3435886e-07 -1
vn -0.951056496 -4.15191796e-08 -0.309017057
vn -0.58778543 1.08698584e-07 0.809016865
vn -1.69567562e-07 1.3435886e-07 1
vn -1.69567562e-07 1.3435886e-07 1
vn 0.587785391 1.08698588e-07 0.809016894
vn 0.587785391 1.08698588e-07 0.809016894
vn 0.951056613 4.15191314e-08 0.309016698
vn 0.587785497 -1.08698578e-07 -0.809016816
vn 0.587785497 -1.08698578e-07 -0.809016816
vn 0.951056586 -4.15191423e-08 -0.309016779
vn 1.99491275e-07 -1.3435886e-07 -1
vn -0.303112719 0.856777706 0.417198564
vn -0.684567427 0.694184881 0.22242929
vn -0.423085913 0.694184919 0.58232775
vn -7.23402988e-08 0.69418491 0.719796715
vn -1.47904835e-07 0.856777807 0.515685747
vn 0.49044662 0.85677764 0.159355542
vn 0.684567396 0.69418485 -0.222429482
vn 0.490446662 0.856777566 -0.159355811
vn 0.303112603 0.856777774 0.417198508
vn 0.684567506 0.694184841 0.222429173
vn -0.303112539 0.856777529 -0.41719906
vn 9.30089428e-08 0.694184898 -0.719796726
vn -0.423085868 0.694184857 -0.582327856
vn -0.684567458 0.694184793 -0.222429468
vn -0.49044668 0.856777538 -0.159355906
vn 0.951056613 4.15191314e-08 0.309016698
vn 0.951056586 -4.15191423e-08 -0.309016779
vn 0.303112754 0.856777607 -0.417198741
vn 0.423085883 0.694184881 -0.582327817
vn 1.52593703e-07 0.266221808 -0.963911795
vn 0.916734634 0.266221712 -0.297865088
vn 1.15037085e-07 0.856777531 -0.515686205
vn 0.423086004 0.694184862 0.582327752
vn 0.916734722 0.266221681 0.297864847
vn -1.03545708e-07 0.266221719 0.96391182
vn -0.916734641 0.266221654 -0.29786512
vn -0.537914821 -0.403100791 -0.740376524
vn 2.22074664e-07 -0.198237621 -0.980153991
vn 3.02542658e-07 -0.403101034 -0.915155482
vn 0.537915417 -0.403100762 -0.740376107
vn 0.932181892 -0.198237825 -0.302883945
vn 0.87036442 -0.403101525 -0.282798403
vn 0.537915011 -0.403100422 0.740376588
vn -2.69662069e-07 -0.198237129 0.98015409
vn -3.30046541e-07 -0.403100275 0.915155816
vn -0.566573101 0.266221745 -0.779821071
vn -0.576119839 -0.198237518 -0.792961423
vn -0.932181913 -0.198237218 -0.302884279
vn -0.870364865 -0.403100286 -0.282798799
vn -0.916734627 0.26622182 0.297865014
vn -0.932182023 -0.198237031 0.302884062
vn -0.5665732 0.266221826 0.779820972
vn -0.576120339 -0.19823715 0.792961151
vn -0.537915501 -0.403100282 0.740376307
vn 0.576119985 -0.19823721 0.792961394
vn -0.490446735 0.856777574 0.159355541
vn 0.932181854 -0.198237823 0.302884065
vn 0.870364317 -0.403101605 0.282798606
vn 0.566573263 0.266221679 0.779820977
vn 0.576120348 -0.19823753 -0.79296105
vn 0.566573213 0.266221712 -0.779821002
vn -0.870365099 -0.403099999 0.282798489
vn 4.11577676e-08 -0.945746369 -0.324905842
vn 0.190974941 -0.945746391 -0.262854209
vn 6.41925874e-08 -0.945746369 -0.324905842
vn -0.19097493 -0.945746351 -0.262854363
vn -0.190975037 -0.945746291 0.262854501
vn -0.309003921 -0.945746321 0.100401563
vn -0.190975027 -0.945746305 0.262854459
vn -0.309003966 -0.945746308 0.100401545
vn -1.1759361e-07 -0.945746306 0.324906025
vn -0.190974903 -0.945746363 -0.262854337
vn -0.30900392 -0.945746345 -0.100401338
vn 0.19097494 -0.945746384 -0.262854237
vn 0.309004117 -0.945746281 -0.100401329
vn 0.309004172 -0.945746269 -0.100401276
vn 0.309004281 -0.945746209 0.100401504
vn -1.36409218e-07 -0.945746324 0.324905972
vn -0.309003964 -0.94574633 -0.100401343
vn 0.181872166 0.950925687 0.250325494
vn 0.498316698 0.85174218 0.161912716
vn 0.294275441 0.950925656 0.0956156983
vn -2.40383203e-08 0.950925679 0.309419381
vn -8.77837348e-08 0.851742214 0.523961069
vn -0.294275676 0.950925584 0.0956156896
vn -0.294275772 0.950925522 -0.0956160145
vn -0.498316761 0.851742082 -0.161913035
vn -0.181872344 0.950925555 -0.250325867
vn 3.00972834e-08 0.851742003 -0.523961411
vn -0.307976666 0.851742009 -0.423893764
vn 0.498316694 0.85174213 -0.161912988
vn 0.294275566 0.950925589 -0.095615978
vn 0.190974992 -0.945746292 0.262854531
vn 0.190974992 -0.945746292 0.262854531
vn 0.309004252 -0.945746211 0.100401579
vn 0.307976588 0.851742276 0.423893283
vn -1.4947772e-07 0.590644891 0.806931603
vn 0.767437727 0.590644754 0.249355387
vn -0.498316703 0.851742188 0.161912658
vn -0.767437713 0.590644676 -0.249355616
vn -0.181872283 0.950925673 0.25032546
vn 4.40702577e-08 0.950925572 -0.309419708
vn 0.767437722 0.590644683 -0.249355574
vn 7.2161648e-08 0.590644713 -0.806931734
vn -0.47430245 0.59064474 -0.652821551
vn -0.307976789 0.851742195 0.423893302
vn -0.767437742 0.590644779 0.249355283
vn -0.474302688 0.590644856 0.652821273
vn -0.852860809 0.44253581 0.277110985
vn -0.527097058 0.442536089 0.725486389
vn -0.852860721 0.442535842 -0.277111203
vn 9.74370861e-08 0.442536064 -0.896750708
vn 0.474302619 0.590644705 -0.652821459
vn 0.527096894 0.442536055 -0.725486529
vn -0.527096583 0.442536163 -0.725486689
vn 0.307976692 0.851742061 -0.42389364
vn 0.852860753 0.442535842 0.277111105
vn 0.474302554 0.590644874 0.652821353
vn 0.527096868 0.442536049 0.725486552
vn -1.29916137e-07 0.44253609 0.896750695
vn 0.85286077 0.442535806 -0.27711111
vn 0.181872325 0.950925591 -0.250325742
vn -3.72480122e-08 1 -1.3435886e-07
vn -1.86240452e-08 1 -1.3435886e-07
vn -3.72480086e-08 1 -1.3435886e-07
vn -3.72479695e-08 1 -1.3435886e-07
vn -3.72479624e-08 1 -1.3435886e-07
vn -3.72479695e-08 1 -1.3435886e-07
vn -3.7247966e-08 1 -1.3435886e-07
vn 0 1 -1.3435886e-07
vn 2.2617278e-14 1 -1.3435886e-07
vn -7.44959249e-08 1 -1.3435886e-07
vn -7.44959391e-08 1 -1.3435886e-07
vn 2.26172814e-14 1 -1.3435886e-07
vn 1.11743919e-07 1 -1.3435886e-07
vn 0 1 -1.3435886e-07
vn 1.11743919e-07 1 -1.3435886e-07
vn 3.72479695e-08 1 -1.3435886e-07
vn 3.72479589e-08 1 -1.3435886e-07
vn 1.86239723e-08 1 -1.3435886e-07
vn 1.86239723e-08 1 -1.3435886e-07
vn -3.12603178e-14 -1 1.3435886e-07
vn -3.12603178e-14 -1 1.3435886e-07
vn -3.12603178e-14 -1 1.3435886e-07
vn -3.12603178e-14 -1 1.3435886e-07
vn -3.12603178e-14 -1 1.3435886e-07
vn -3.12603178e-14 -1 1.3435886e-07
vn -3.12603178e-14 -1 1.3435886e-07
vn -3.12603178e-14 -1 1.3435886e-07
vn -3.12603178e-14 -1 1.3435886e-07
vn -3.12603178e-14 -1 1.3435886e-07
vn -0.587782399 -0.00300685893 -0.80901348
vn -0.951052207 -0.00300703084 -0.309015627
vn -0.587782438 -0.00300685836 -0.809013451
vn 1.39726473e-07 -0.00300691235 -0.999995479
vn 1.39561243e-07 -0.00300691258 -0.999995479
vn -1.8624031e-08 1 -1.3435886e-07
vn -0.951052256 -0.00300703081 -0.309015474
vn -0.951052256 -0.00300719993 0.309015475
vn -0.951052305 -0.00300719966 0.309015323
vn -0.587782811 -0.00300793977 0.809013176
vn -0.587782744 -0.00300793973 0.809013225
vn -1.99609311e-07 -0.00300762523 0.999995477
vn -2.09341857e-07 -0.003007625 0.999995477
vn 0.587782572 -0.00300725315 0.809013353
vn 0.587782572 -0.00300725338 0.809013353
vn 0.951052228 -0.00300752441 0.309015555
vn 0.951052263 -0.00300767228 -0.309015447
vn 0.951052237 -0.00300767266 -0.309015528
vn 0.951052246 -0.00300752423 0.309015501
vn 0.587782706 -0.00300760101 -0.809013254
vn 0.587782504 -0.00300760065 -0.809013401
f 1/1/1 2/2/2 3/3/3
f 1/1/1 4/4/4 2/2/2
f 5/5/5 6/6/6 7/7/7
f 5/5/5 8/8/8 6/6/6
f 9/9/9 10/10/10 11/11/11
f 9/9/9 12/12/12 10/10/10
f 13/13/13 14/14/14 15/15/15
f 13/13/13 16/16/16 14/14/14
f 17/17/17 18/18/18 19/19/19
f 18/18/18 17/17/17 20/20/20
f 18/18/18 21/21/21 22/22/22
f 18/18/18 22/22/22 19/19/19
f 23/23/23 24/24/24 25/25/25
f 23/23/23 26/26/26 24/24/24
f 27/27/27 28/28/28 29/29/29
f 30/30/30 31/31/31 32/32/32
f 33/33/33 34/34/34 35/35/35
f 36/36/36 37/37/37 38/38/38
f 37/37/37 36/36/36 39/39/39
f 39/39/39 40/40/40 37/37/37
f 34/34/34 33/33/33 41/41/41
f 41/41/41 42/42/42 34/34/34
f 31/31/31 30/30/30 43/43/43
f 43/43/43 44/44/44 31/31/31
f 28/28/28 27/27/27 45/45/45
f 45/45/45 46/46/46 28/28/28
f 47/47/47 48/48/48 49/49/49
f 50/50/50 48/48/48 47/47/47
f 51/51/51 17/17/17 52/52/52
f 51/51/51 20/20/20 17/17/17
f 21/21/21 52/52/52 22/22/22
f 21/21/21 51/51/51 52/52/52
f 53/53/53 46/46/46 45/45/45
f 53/53/53 54/54/54 46/46/46
f 55/55/55 54/54/54 53/53/53
f 56/56/56 44/44/44 43/43/43
f 56/56/56 57/57/57 44/44/44
f 58/58/58 57/57/57 56/56/56
f 59/59/59 42/42/42 41/41/41
f 59/59/59 60/60/60 42/42/42
f 61/61/61 60/60/60 59/59/59
f 62/62/62 63/63/63 40/40/40
f 62/62/62 40/40/40 39/39/39
f 64/64/64 63/63/63 62/62/62
f 65/65/65 66/66/66 67/67/67
f 68/68/68 69/69/69 70/70/70
f 71/71/71 72/72/72 73/73/73
f 73/73/73 74/74/74 75/75/75
f 76/76/76 77/77/77 78/78/78
f 74/74/74 73/73/73 72/72/72
f 74/74/74 79/79/79 76/76/76
f 74/74/74 76/76/76 75/75/75
f 79/79/79 74/74/74 80/80/80
f 79/79/79 81/81/81 77/77/77
f 80/80/80 82/82/82 79/79/79
f 69/69/69 83/83/83 71/71/71
f 69/69/69 71/71/71 70/70/70
f 69/69/69 68/68/68 84/84/84
f 85/85/85 83/83/83 69/69/69
f 85/85/85 86/86/86 83/83/83
f 85/85/85 84/84/84 87/87/87
f 77/77/77 88/88/88 65/65/65
f 77/77/77 65/65/65 78/78/78
f 77/77/77 76/76/76 79/79/79
f 81/81/81 79/79/79 82/82/82
f 81/81/81 89/89/89 88/88/88
f 81/81/81 88/88/88 77/77/77
f 66/66/66 90/90/90 91/91/91
f 66/66/66 91/91/91 67/67/67
f 66/66/66 65/65/65 88/88/88
f 88/88/88 92/92/92 66/66/66
f 92/92/92 90/90/90 66/66/66
f 92/92/92 93/93/93 90/90/90
f 92/92/92 88/88/88 89/89/89
f 72/72/72 71/71/71 83/83/83
f 83/83/83 94/94/94 72/72/72
f 94/94/94 83/83/83 86/86/86
f 94/94/94 80/80/80 74/74/74
f 94/94/94 74/74/74 72/72/72
f 90/90/90 84/84/84 68/68/68
f 90/90/90 68/68/68 91/91/91
f 84/84/84 85/85/85 69/69/69
f 84/84/84 90/90/90 93/93/93
f 93/93/93 87/87/87 84/84/84
f 95/95/95 96/96/96 97/97/97
f 98/98/98 99/99/99 100/100/100
f 99/99/99 101/101/101 102/102/102
f 99/99/99 102/102/102 100/100/100
f 99/99/99 98/98/98 95/95/95
f 102/102/102 103/103/103 104/104/104
f 96/96/96 105/105/105 106/106/106
f 96/96/96 95/95/95 98/98/98
f 106/106/106 97/97/97 96/96/96
f 107/107/107 108/108/108 109/109/109
f 105/105/105 109/109/109 106/106/106
f 109/109/109 105/105/105 107/107/107
f 108/108/108 107/107/107 110/110/110
f 111/111/111 108/108/108 110/110/110
f 110/110/110 112/112/112 111/111/111
f 113/113/113 112/112/112 114/114/114
f 113/113/113 111/111/111 112/112/112
f 103/103/103 102/102/102 101/101/101
f 103/103/103 114/114/114 104/104/104
f 114/114/114 103/103/103 113/113/113
f 115/115/115 116/116/116 117/117/117
f 116/116/116 115/115/115 118/118/118
f 119/119/119 120/120/120 121/121/121
f 120/120/120 119/119/119 122/122/122
f 117/117/117 122/122/122 115/115/115
f 122/122/122 117/117/117 120/120/120
f 118/118/118 123/123/123 116/116/116
f 123/123/123 118/118/118 124/124/124
f 124/124/124 125/125/125 123/123/123
f 125/125/125 124/124/124 126/126/126
f 127/127/127 126/126/126 128/128/128
f 126/126/126 127/127/127 125/125/125
f 129/129/129 130/130/130 131/131/131
f 130/130/130 129/129/129 132/132/132
f 121/121/121 132/132/132 119/119/119
f 132/132/132 121/121/121 130/130/130
f 133/133/133 134/134/134 135/135/135
f 133/133/133 136/136/136 137/137/137
f 138/138/138 139/139/139 140/140/140
f 141/141/141 142/142/142 138/138/138
f 141/141/141 137/137/137 136/136/136
f 143/143/143 144/144/144 145/145/145
f 143/143/143 146/146/146 147/147/147
f 128/128/128 148/148/148 127/127/127
f 148/148/148 128/128/128 149/149/149
f 131/131/131 149/149/149 129/129/129
f 149/149/149 131/131/131 148/148/148
f 139/139/139 138/138/138 142/142/142
f 139/139/139 150/150/150 140/140/140
f 139/139/139 151/151/151 150/150/150
f 151/151/151 152/152/152 144/144/144
f 151/151/151 139/139/139 153/153/153
f 151/151/151 144/144/144 154/154/154
f 151/151/151 154/154/154 150/150/150
f 142/142/142 141/141/141 155/155/155
f 142/142/142 153/153/153 139/139/139
f 155/155/155 156/156/156 142/142/142
f 155/155/155 136/136/136 157/157/157
f 144/144/144 143/143/143 154/154/154
f 145/145/145 158/158/158 146/146/146
f 145/145/145 144/144/144 152/152/152
f 159/159/159 160/160/160 161/161/161
f 162/162/162 163/163/163 164/164/164
f 165/165/165 166/166/166 167/167/167
f 168/168/168 152/152/152 160/160/160
f 168/168/168 160/160/160 169/169/169
f 170/170/170 159/159/159 171/171/171
f 170/170/170 169/169/169 159/159/159
f 158/158/158 168/168/168 169/169/169
f 158/158/158 169/169/169 170/170/170
f 158/158/158 145/145/145 168/168/168
f 172/172/172 170/170/170 173/173/173
f 172/172/172 174/174/174 135/135/135
f 172/172/172 158/158/158 170/170/170
f 166/166/166 175/175/175 176/176/176
f 166/166/166 165/165/165 177/177/177
f 166/166/166 174/174/174 175/175/175
f 166/166/166 176/176/176 167/167/167
f 177/177/177 157/157/157 166/166/166
f 134/134/134 146/146/146 158/158/158
f 134/134/134 158/158/158 172/172/172
f 134/134/134 133/133/133 178/178/178
f 146/146/146 134/134/134 178/178/178
f 146/146/146 143/143/143 145/145/145
f 178/178/178 147/147/147 146/146/146
f 179/179/179 165/165/165 180/180/180
f 179/179/179 177/177/177 165/165/165
f 156/156/156 155/155/155 181/181/181
f 156/156/156 177/177/177 179/179/179
f 156/156/156 181/181/181 177/177/177
f 163/163/163 179/179/179 180/180/180
f 163/163/163 180/180/180 164/164/164
f 163/163/163 162/162/162 182/182/182
f 153/153/153 179/179/179 163/163/163
f 153/153/153 156/156/156 179/179/179
f 153/153/153 183/183/183 151/151/151
f 153/153/153 142/142/142 156/156/156
f 176/176/176 173/173/173 184/184/184
f 173/173/173 171/171/171 184/184/184
f 173/173/173 176/176/176 175/175/175
f 173/173/173 170/170/170 171/171/171
f 185/185/185 186/186/186 187/187/187
f 187/187/187 188/188/188 185/185/185
f 189/189/189 190/190/190 191/191/191
f 191/191/191 190/190/190 192/192/192
f 191/191/191 193/193/193 189/189/189
f 188/188/188 194/194/194 185/185/185
f 188/188/188 195/195/195 194/194/194
f 186/186/186 185/185/185 196/196/196
f 186/186/186 197/197/197 198/198/198
f 197/197/197 186/186/186 196/196/196
f 197/197/197 199/199/199 198/198/198
f 193/193/193 191/191/191 200/200/200
f 192/192/192 195/195/195 201/201/201
f 195/195/195 188/188/188 201/201/201
f 190/190/190 195/195/195 192/192/192
f 174/174/174 166/166/166 157/157/157
f 174/174/174 172/172/172 173/173/173
f 174/174/174 173/173/173 175/175/175
f 136/136/136 155/155/155 141/141/141
f 136/136/136 133/133/133 135/135/135
f 157/157/157 177/177/177 181/181/181
f 157/157/157 135/135/135 174/174/174
f 157/157/157 181/181/181 155/155/155
f 135/135/135 134/134/134 172/172/172
f 135/135/135 157/157/157 136/136/136
f 160/160/160 159/159/159 169/169/169
f 160/160/160 182/182/182 162/162/162
f 160/160/160 162/162/162 161/161/161
f 183/183/183 153/153/153 163/163/163
f 183/183/183 163/163/163 182/182/182
f 152/152/152 168/168/168 145/145/145
f 152/152/152 182/182/182 160/160/160
f 152/152/152 183/183/183 182/182/182
f 152/152/152 151/151/151 183/183/183
f 202/202/202 203/203/203 204/204/204
f 202/202/202 205/205/205 206/206/206
f 207/207/207 208/208/208 209/209/209
f 210/210/210 211/211/211 212/212/212
f 210/210/210 209/209/209 208/208/208
f 204/204/204 213/213/213 214/214/214
f 215/215/215 193/193/193 216/216/216
f 199/199/199 197/197/197 217/217/217
f 216/216/216 217/217/217 215/215/215
f 216/216/216 193/193/193 200/200/200
f 217/217/217 216/216/216 199/199/199
f 218/218/218 206/206/206 219/219/219
f 218/218/218 220/220/220 203/203/203
f 221/221/221 209/209/209 222/222/222
f 221/221/221 223/223/223 207/207/207
f 211/211/211 210/210/210 224/224/224
f 203/203/203 225/225/225 213/213/213
f 203/203/203 202/202/202 218/218/218
f 209/209/209 210/210/210 212/212/212
f 209/209/209 221/221/221 207/207/207
f 212/212/212 222/222/222 209/209/209
f 212/212/212 226/226/226 227/227/227
f 228/228/228 229/229/229 230/230/230
f 206/206/206 223/223/223 228/228/228
f 206/206/206 218/218/218 202/202/202
f 206/206/206 230/230/230 219/219/219
f 223/223/223 221/221/221 228/228/228
f 223/223/223 206/206/206 205/205/205
f 231/231/231 232/232/232 230/230/230
f 229/229/229 233/233/233 231/231/231
f 229/229/229 222/222/222 233/233/233
f 229/229/229 228/228/228 221/221/221
f 234/234/234 235/235/235 236/236/236
f 234/234/234 237/237/237 227/227/227
f 226/226/226 212/212/212 211/211/211
f 226/226/226 238/238/238 235/235/235
f 239/239/239 240/240/240 241/241/241
f 220/220/220 218/218/218 240/240/240
f 230/230/230 242/242/242 219/219/219
f 230/230/230 206/206/206 228/228/228
f 230/230/230 229/229/229 231/231/231
f 222/222/222 229/229/229 221/221/221
f 222/222/222 212/212/212 227/227/227
f 233/233/233 227/227/227 237/237/237
f 227/227/227 233/233/233 222/222/222
f 227/227/227 226/226/226 234/234/234
f 243/243/243 236/236/236 235/235/235
f 213/213/213 238/238/238 244/244/244
f 213/213/213 244/244/244 214/214/214
f 213/213/213 204/204/204 203/203/203
f 238/238/238 224/224/224 244/244/244
f 238/238/238 211/211/211 224/224/224
f 238/238/238 226/226/226 211/211/211
f 235/235/235 234/234/234 226/226/226
f 235/235/235 225/225/225 243/243/243
f 225/225/225 238/238/238 213/213/213
f 225/225/225 239/239/239 243/243/243
f 225/225/225 235/235/235 238/238/238
f 225/225/225 220/220/220 239/239/239
f 225/225/225 203/203/203 220/220/220
f 245/245/245 246/246/246 247/247/247
f 247/247/247 248/248/248 249/249/249
f 249/249/249 245/245/245 247/247/247
f 249/249/249 250/250/250 251/251/251
f 250/250/250 249/249/249 248/248/248
f 250/250/250 252/252/252 251/251/251
f 253/253/253 254/254/254 255/255/255
f 256/256/256 257/257/257 253/253/253
f 252/252/252 255/255/255 254/254/254
f 252/252/252 250/250/250 258/258/258
f 255/255/255 252/252/252 258/258/258
f 255/255/255 256/256/256 253/253/253
f 257/257/257 256/256/256 259/259/259
f 257/257/257 260/260/260 261/261/261
f 260/260/260 262/262/262 263/263/263
f 260/260/260 257/257/257 259/259/259
f 242/242/242 230/230/230 232/232/232
f 242/242/242 241/241/241 240/240/240
f 219/219/219 240/240/240 218/218/218
f 240/240/240 239/239/239 220/220/220
f 240/240/240 219/219/219 242/242/242
f 264/264/264 265/265/265 266/266/266
f 265/265/265 267/267/267 268/268/268
f 267/267/267 264/264/264 269/269/269
f 267/267/267 265/265/265 264/264/264
f 268/268/268 270/270/270 271/271/271
f 268/268/268 271/271/271 272/272/272
f 270/270/270 268/268/268 267/267/267
f 271/271/271 270/270/270 273/273/273
f 274/274/274 275/275/275 276/276/276
f 274/274/274 277/277/277 278/278/278
f 263/263/263 261/261/261 260/260/260
f 263/263/263 246/246/246 279/279/279
f 246/246/246 245/245/245 279/279/279
f 246/246/246 263/263/263 262/262/262
f 275/275/275 274/274/274 280/280/280
f 280/280/280 281/281/281 275/275/275
f 281/281/281 280/280/280 282/282/282
f 281/281/281 283/283/283 284/284/284
f 283/283/283 281/281/281 282/282/282
f 283/283/283 285/285/285 284/284/284
f 285/285/285 283/283/283 286/286/286
f 285/285/285 287/287/287 288/288/288
f 287/287/287 285/285/285 286/286/286
f 287/287/287 289/289/289 288/288/288
f 289/289/289 290/290/290 291/291/291
f 289/289/289 287/287/287 292/292/292
f 290/290/290 289/289/289 292/292/292
f 291/291/291 293/293/293 294/294/294
f 293/293/293 277/277/277 294/294/294
f 293/293/293 291/291/291 290/290/290
f 277/277/277 274/274/274 276/276/276
f 277/277/277 293/293/293 278/278/278
